<svg width="350" height="250" viewBox="0 0 350 250" fill="none" xmlns="http://www.w3.org/2000/svg">
<rect width="350" height="250" fill="#F7F7F7"/>
<path d="M104.782 154.231C103.018 154.231 101.765 153.741 101.023 152.761C100.295 151.767 99.9309 150.367 99.9309 148.561V142.492C99.9309 140.63 100.295 139.216 101.023 138.25C101.751 137.284 103.004 136.801 104.782 136.801C106.448 136.801 107.631 137.221 108.331 138.061C109.031 138.901 109.381 140.112 109.381 141.694V143.122H106.399V141.652C106.399 141.05 106.371 140.581 106.315 140.245C106.259 139.895 106.112 139.615 105.874 139.405C105.65 139.181 105.293 139.069 104.803 139.069C104.299 139.069 103.921 139.188 103.669 139.426C103.417 139.65 103.249 139.958 103.165 140.35C103.095 140.728 103.06 141.225 103.06 141.841V149.212C103.06 150.178 103.186 150.878 103.438 151.312C103.69 151.732 104.145 151.942 104.803 151.942C105.279 151.942 105.629 151.83 105.853 151.606C106.091 151.382 106.238 151.088 106.294 150.724C106.364 150.346 106.399 149.849 106.399 149.233V147.7H109.381V149.065C109.381 150.703 109.038 151.977 108.352 152.887C107.666 153.783 106.476 154.231 104.782 154.231ZM113.666 139.279H110.957V136.99H119.42V139.279H116.774V154H113.666V139.279ZM121.388 136.99H126.386C129.284 136.99 130.733 138.6 130.733 141.82C130.733 144.9 129.214 146.44 126.176 146.44H124.475V154H121.388V136.99ZM125.672 144.256C126.512 144.256 127.079 144.081 127.373 143.731C127.667 143.367 127.814 142.723 127.814 141.799C127.814 141.127 127.765 140.616 127.667 140.266C127.569 139.902 127.366 139.629 127.058 139.447C126.764 139.265 126.302 139.174 125.672 139.174H124.475V144.256H125.672ZM137.523 154.231C135.759 154.231 134.499 153.762 133.743 152.824C132.987 151.872 132.609 150.486 132.609 148.666V142.282C132.609 140.476 132.987 139.111 133.743 138.187C134.499 137.263 135.759 136.801 137.523 136.801C139.273 136.801 140.526 137.263 141.282 138.187C142.038 139.111 142.416 140.476 142.416 142.282V148.666C142.416 150.472 142.031 151.851 141.261 152.803C140.505 153.755 139.259 154.231 137.523 154.231ZM137.523 151.942C138.209 151.942 138.671 151.725 138.909 151.291C139.147 150.857 139.266 150.227 139.266 149.401V141.568C139.266 140.742 139.147 140.119 138.909 139.699C138.685 139.279 138.223 139.069 137.523 139.069C136.823 139.069 136.354 139.286 136.116 139.72C135.878 140.14 135.759 140.756 135.759 141.568V149.401C135.759 150.227 135.878 150.857 136.116 151.291C136.354 151.725 136.823 151.942 137.523 151.942ZM145.177 136.99H147.718V147.721L152.38 136.99H154.459V154H151.876V143.08L147.214 154H145.177V136.99ZM159.191 139.279H156.482V136.99H164.945V139.279H162.299V154H159.191V139.279ZM166.913 136.99H174.053V139.174H170V144.067H173.192V146.23H170V151.879H174.095V154H166.913V136.99ZM175.14 151.774C175.854 151.788 176.365 151.676 176.673 151.438C176.995 151.186 177.24 150.626 177.408 149.758C177.576 148.89 177.737 147.399 177.891 145.285L178.437 136.99H186.711V154H183.624V139.321H181.167L180.81 145.663C180.67 147.931 180.481 149.618 180.243 150.724C180.005 151.816 179.557 152.642 178.899 153.202C178.255 153.748 177.254 154.021 175.896 154.021C175.574 154.021 175.322 154.014 175.14 154V151.774ZM189.8 136.99H192.887V144.13H193.643C195.407 144.13 196.716 144.508 197.57 145.264C198.438 146.02 198.872 147.287 198.872 149.065C198.872 150.885 198.424 152.166 197.528 152.908C196.632 153.636 195.295 154 193.517 154H189.8V136.99ZM193.517 151.9C194.413 151.9 195.05 151.697 195.428 151.291C195.806 150.885 195.995 150.15 195.995 149.086C195.995 148.134 195.813 147.434 195.449 146.986C195.085 146.524 194.427 146.293 193.475 146.293H192.887V151.9H193.517ZM205.81 154.231C204.046 154.231 202.793 153.741 202.051 152.761C201.323 151.767 200.959 150.367 200.959 148.561V142.492C200.959 140.63 201.323 139.216 202.051 138.25C202.779 137.284 204.032 136.801 205.81 136.801C207.476 136.801 208.659 137.221 209.359 138.061C210.059 138.901 210.409 140.112 210.409 141.694V143.122H207.427V141.652C207.427 141.05 207.399 140.581 207.343 140.245C207.287 139.895 207.14 139.615 206.902 139.405C206.678 139.181 206.321 139.069 205.831 139.069C205.327 139.069 204.949 139.188 204.697 139.426C204.445 139.65 204.277 139.958 204.193 140.35C204.123 140.728 204.088 141.225 204.088 141.841V149.212C204.088 150.178 204.214 150.878 204.466 151.312C204.718 151.732 205.173 151.942 205.831 151.942C206.307 151.942 206.657 151.83 206.881 151.606C207.119 151.382 207.266 151.088 207.322 150.724C207.392 150.346 207.427 149.849 207.427 149.233V147.7H210.409V149.065C210.409 150.703 210.066 151.977 209.38 152.887C208.694 153.783 207.504 154.231 205.81 154.231ZM214.694 139.279H211.985V136.99H220.448V139.279H217.802V154H214.694V139.279ZM222.416 136.99H226.616C228.226 136.99 229.458 137.319 230.312 137.977C231.166 138.635 231.593 139.762 231.593 141.358C231.593 142.394 231.383 143.206 230.963 143.794C230.543 144.368 229.934 144.718 229.136 144.844C231.096 145.222 232.076 146.622 232.076 149.044C232.076 150.682 231.677 151.921 230.879 152.761C230.081 153.587 228.898 154 227.33 154H222.416V136.99ZM226.574 143.941C227.47 143.941 228.079 143.745 228.401 143.353C228.737 142.947 228.905 142.296 228.905 141.4C228.905 140.532 228.688 139.944 228.254 139.636C227.834 139.314 227.127 139.153 226.133 139.153H225.503V143.941H226.574ZM226.7 151.816C227.61 151.816 228.24 151.599 228.59 151.165C228.94 150.731 229.115 150.017 229.115 149.023C229.115 148.001 228.919 147.259 228.527 146.797C228.149 146.321 227.505 146.083 226.595 146.083H225.503V151.816H226.7ZM239.166 154.231C237.402 154.231 236.142 153.762 235.386 152.824C234.63 151.872 234.252 150.486 234.252 148.666V142.282C234.252 140.476 234.63 139.111 235.386 138.187C236.142 137.263 237.402 136.801 239.166 136.801C240.916 136.801 242.169 137.263 242.925 138.187C243.681 139.111 244.059 140.476 244.059 142.282V148.666C244.059 150.472 243.674 151.851 242.904 152.803C242.148 153.755 240.902 154.231 239.166 154.231ZM239.166 151.942C239.852 151.942 240.314 151.725 240.552 151.291C240.79 150.857 240.909 150.227 240.909 149.401V141.568C240.909 140.742 240.79 140.119 240.552 139.699C240.328 139.279 239.866 139.069 239.166 139.069C238.466 139.069 237.997 139.286 237.759 139.72C237.521 140.14 237.402 140.756 237.402 141.568V149.401C237.402 150.227 237.521 150.857 237.759 151.291C237.997 151.725 238.466 151.942 239.166 151.942ZM92.2071 185.231C90.4431 185.231 89.1831 184.762 88.4271 183.824C87.6711 182.872 87.2931 181.486 87.2931 179.666V173.282C87.2931 171.476 87.6711 170.111 88.4271 169.187C89.1831 168.263 90.4431 167.801 92.2071 167.801C93.9571 167.801 95.2101 168.263 95.9661 169.187C96.7221 170.111 97.1001 171.476 97.1001 173.282V179.666C97.1001 181.472 96.7151 182.851 95.9451 183.803C95.1891 184.755 93.9431 185.231 92.2071 185.231ZM92.2071 182.942C92.8931 182.942 93.3551 182.725 93.5931 182.291C93.8311 181.857 93.9501 181.227 93.9501 180.401V172.568C93.9501 171.742 93.8311 171.119 93.5931 170.699C93.3691 170.279 92.9071 170.069 92.2071 170.069C91.5071 170.069 91.0381 170.286 90.8001 170.72C90.5621 171.14 90.4431 171.756 90.4431 172.568V180.401C90.4431 181.227 90.5621 181.857 90.8001 182.291C91.0381 182.725 91.5071 182.942 92.2071 182.942ZM104.649 182.984C104.061 183.026 103.718 183.047 103.62 183.047C102.332 183.047 101.324 182.697 100.596 181.997C99.8821 181.283 99.5251 180.191 99.5251 178.721V174.017C99.5251 172.603 99.8891 171.525 100.617 170.783C101.359 170.041 102.374 169.67 103.662 169.67C103.984 169.67 104.313 169.684 104.649 169.712V166.73H107.358V169.712C107.694 169.684 108.009 169.67 108.303 169.67C109.619 169.67 110.641 170.041 111.369 170.783C112.111 171.525 112.482 172.603 112.482 174.017V178.721C112.482 180.177 112.139 181.262 111.453 181.976C110.767 182.69 109.864 183.047 108.744 183.047C108.282 183.047 107.82 183.026 107.358 182.984V185.672H104.649V182.984ZM104.145 181.157C104.313 181.157 104.481 181.143 104.649 181.115V171.56C104.397 171.532 104.194 171.518 104.04 171.518C103.424 171.518 102.976 171.714 102.696 172.106C102.43 172.484 102.297 173.114 102.297 173.996V178.742C102.297 179.638 102.423 180.268 102.675 180.632C102.927 180.982 103.417 181.157 104.145 181.157ZM107.946 181.157C108.618 181.157 109.08 180.982 109.332 180.632C109.598 180.268 109.731 179.645 109.731 178.763V173.996C109.731 173.086 109.605 172.449 109.353 172.085C109.101 171.707 108.653 171.518 108.009 171.518C107.827 171.518 107.61 171.532 107.358 171.56V181.115C107.554 181.143 107.75 181.157 107.946 181.157ZM115.231 167.99H117.772V178.721L122.434 167.99H124.513V185H121.93V174.08L117.268 185H115.231V167.99ZM132.123 185.231C130.359 185.231 129.106 184.741 128.364 183.761C127.636 182.767 127.272 181.367 127.272 179.561V173.492C127.272 171.63 127.636 170.216 128.364 169.25C129.092 168.284 130.345 167.801 132.123 167.801C133.789 167.801 134.972 168.221 135.672 169.061C136.372 169.901 136.722 171.112 136.722 172.694V174.122H133.74V172.652C133.74 172.05 133.712 171.581 133.656 171.245C133.6 170.895 133.453 170.615 133.215 170.405C132.991 170.181 132.634 170.069 132.144 170.069C131.64 170.069 131.262 170.188 131.01 170.426C130.758 170.65 130.59 170.958 130.506 171.35C130.436 171.728 130.401 172.225 130.401 172.841V180.212C130.401 181.178 130.527 181.878 130.779 182.312C131.031 182.732 131.486 182.942 132.144 182.942C132.62 182.942 132.97 182.83 133.194 182.606C133.432 182.382 133.579 182.088 133.635 181.724C133.705 181.346 133.74 180.849 133.74 180.233V178.7H136.722V180.065C136.722 181.703 136.379 182.977 135.693 183.887C135.007 184.783 133.817 185.231 132.123 185.231ZM139.348 167.99H142.435V175.088H145.9V167.99H149.008V185H145.9V177.314H142.435V185H139.348V167.99ZM152.072 167.99H155.159V175.13H155.915C157.693 175.13 159.009 175.508 159.863 176.264C160.717 177.02 161.144 178.287 161.144 180.065C161.144 181.885 160.696 183.166 159.8 183.908C158.904 184.636 157.567 185 155.789 185H152.072V167.99ZM162.74 167.99H165.827V185H162.74V167.99ZM155.81 182.9C156.692 182.9 157.322 182.697 157.7 182.291C158.078 181.885 158.267 181.15 158.267 180.086C158.267 179.134 158.085 178.434 157.721 177.986C157.357 177.524 156.706 177.293 155.768 177.293H155.159V182.9H155.81ZM171.209 175.97L167.891 167.99H170.789L172.994 173.282L174.926 167.99H177.593L174.338 176.558L177.845 185H174.968L172.553 179.267L170.453 185H167.786L171.209 175.97ZM189.336 185.252C186.368 185.252 184.884 183.628 184.884 180.38V179.792H187.782C187.782 180.072 187.789 180.282 187.803 180.422C187.817 181.262 187.929 181.871 188.139 182.249C188.363 182.627 188.769 182.816 189.357 182.816C189.959 182.816 190.365 182.606 190.575 182.186C190.785 181.752 190.89 181.073 190.89 180.149C190.89 179.225 190.715 178.525 190.365 178.049C190.029 177.573 189.413 177.307 188.517 177.251H187.719V175.193C188.069 175.193 188.321 175.186 188.475 175.172C189.385 175.13 190.015 174.892 190.365 174.458C190.715 174.01 190.89 173.324 190.89 172.4C190.89 171.658 190.757 171.091 190.491 170.699C190.239 170.307 189.819 170.111 189.231 170.111C188.657 170.111 188.237 170.314 187.971 170.72C187.705 171.112 187.558 171.672 187.53 172.4V173.135H184.632V172.337C184.632 170.895 185.031 169.775 185.829 168.977C186.641 168.179 187.761 167.78 189.189 167.78C190.631 167.78 191.751 168.179 192.549 168.977C193.361 169.761 193.767 170.867 193.767 172.295C193.767 173.275 193.557 174.101 193.137 174.773C192.731 175.445 192.192 175.872 191.52 176.054C193.018 176.6 193.767 177.951 193.767 180.107C193.767 181.731 193.41 182.998 192.696 183.908C191.996 184.804 190.876 185.252 189.336 185.252ZM195.319 182.795H195.928C196.446 182.515 196.887 182.074 197.251 181.472C197.615 180.856 197.93 179.911 198.196 178.637C198.462 177.363 198.658 175.648 198.784 173.492L199.162 167.99H206.68V182.795H208.465V188.381H206.302L206.113 185H197.734L197.524 188.381H195.319V182.795ZM203.74 182.795V170.216H201.598L201.409 173.975C201.311 176.089 201.136 177.727 200.884 178.889C200.646 180.051 200.373 180.877 200.065 181.367C199.757 181.857 199.344 182.333 198.826 182.795H203.74ZM213.129 167.99H216.447L219.849 185H216.972L216.3 181.073H213.339L212.646 185H209.727L213.129 167.99ZM215.964 179.099L214.809 171.959L213.654 179.099H215.964ZM222.022 167.99H225.109V175.088H228.574V167.99H231.682V185H228.574V177.314H225.109V185H222.022V167.99ZM234.747 167.99H237.288V178.721L241.95 167.99H244.029V185H241.446V174.08L236.784 185H234.747V167.99ZM247.102 167.99H249.643V178.721L254.305 167.99H256.384V185H253.801V174.08L249.139 185H247.102V167.99ZM251.974 166.646C250.994 166.646 250.245 166.373 249.727 165.827C249.209 165.281 248.95 164.532 248.95 163.58H250.567C250.581 164.112 250.693 164.504 250.903 164.756C251.127 165.008 251.484 165.134 251.974 165.134C252.478 165.134 252.835 165.008 253.045 164.756C253.269 164.49 253.381 164.098 253.381 163.58H255.019C255.019 164.532 254.76 165.281 254.242 165.827C253.724 166.373 252.968 166.646 251.974 166.646Z" fill="black"/>
<path d="M167.875 94H164.125C163.469 94 163 94.5625 163 95.125V98.875C163 99.5312 163.469 100 164.125 100H167.875C168.438 100 169 99.5312 169 98.875V95.125C169 94.5625 168.438 94 167.875 94ZM167.875 76H164.125C163.469 76 163 76.5625 163 77.125V80.875C163 81.5312 163.469 82 164.125 82H167.875C168.438 82 169 81.5312 169 80.875V77.125C169 76.5625 168.438 76 167.875 76ZM158.875 76H155.125C154.469 76 154 76.5625 154 77.125V80.875C154 81.5312 154.469 82 155.125 82H158.875C159.438 82 160 81.5312 160 80.875V77.125C160 76.5625 159.438 76 158.875 76ZM158.875 94H155.125C154.469 94 154 94.5625 154 95.125V98.875C154 99.5312 154.469 100 155.125 100H158.875C159.438 100 160 99.5312 160 98.875V95.125C160 94.5625 159.438 94 158.875 94ZM158.875 85H155.125C154.469 85 154 85.5625 154 86.125V89.875C154 90.5312 154.469 91 155.125 91H158.875C159.438 91 160 90.5312 160 89.875V86.125C160 85.5625 159.438 85 158.875 85ZM167.875 85H164.125C163.469 85 163 85.5625 163 86.125V89.875C163 90.5312 163.469 91 164.125 91H167.875C168.438 91 169 90.5312 169 89.875V86.125C169 85.5625 168.438 85 167.875 85ZM194.875 94H191.125C190.469 94 190 94.5625 190 95.125V98.875C190 99.5312 190.469 100 191.125 100H194.875C195.438 100 196 99.5312 196 98.875V95.125C196 94.5625 195.438 94 194.875 94ZM194.875 85H191.125C190.469 85 190 85.5625 190 86.125V89.875C190 90.5312 190.469 91 191.125 91H194.875C195.438 91 196 90.5312 196 89.875V86.125C196 85.5625 195.438 85 194.875 85ZM202.75 76H193V60.25C193 59.0312 191.969 58 190.75 58H171.25C169.938 58 169 59.0312 169 60.25V67H166V59.5C166 58.75 165.25 58 164.5 58H163C162.156 58 161.5 58.75 161.5 59.5V67H155.5V59.5C155.5 58.75 154.75 58 154 58H152.5C151.656 58 151 58.75 151 59.5V67H147.25C145.938 67 145 68.0312 145 69.25V104.5C145 105.344 145.656 106 146.5 106H148C148.75 106 149.5 105.344 149.5 104.5V71.5H173.5V62.5H188.5V80.5H200.5V104.5C200.5 105.344 201.156 106 202 106H203.5C204.25 106 205 105.344 205 104.5V78.25C205 77.0312 203.969 76 202.75 76ZM182.875 67H179.125C178.469 67 178 67.5625 178 68.125V71.875C178 72.5312 178.469 73 179.125 73H182.875C183.438 73 184 72.5312 184 71.875V68.125C184 67.5625 183.438 67 182.875 67ZM182.875 85H179.125C178.469 85 178 85.5625 178 86.125V89.875C178 90.5312 178.469 91 179.125 91H182.875C183.438 91 184 90.5312 184 89.875V86.125C184 85.5625 183.438 85 182.875 85ZM182.875 76H179.125C178.469 76 178 76.5625 178 77.125V80.875C178 81.5312 178.469 82 179.125 82H182.875C183.438 82 184 81.5312 184 80.875V77.125C184 76.5625 183.438 76 182.875 76Z" fill="#F7654A"/>
</svg>
